<?xml version="1.0" encoding="UTF-8" standalone="no"?>
<!-- Created with Inkscape (http://www.inkscape.org/) -->

<svg
   xmlns:dc="http://purl.org/dc/elements/1.1/"
   xmlns:cc="http://creativecommons.org/ns#"
   xmlns:rdf="http://www.w3.org/1999/02/22-rdf-syntax-ns#"
   xmlns:svg="http://www.w3.org/2000/svg"
   xmlns="http://www.w3.org/2000/svg"
   xmlns:sodipodi="http://sodipodi.sourceforge.net/DTD/sodipodi-0.dtd"
   xmlns:inkscape="http://www.inkscape.org/namespaces/inkscape"
   width="1052.3622"
   height="744.09448"
   id="svg3049"
   version="1.1"
   inkscape:version="0.48.2 r9819"
   sodipodi:docname="Neues Dokument 2">
  <defs
     id="defs3051" />
  <sodipodi:namedview
     id="base"
     pagecolor="#ffffff"
     bordercolor="#666666"
     borderopacity="1.0"
     inkscape:pageopacity="0.0"
     inkscape:pageshadow="2"
     inkscape:zoom="0.98994949"
     inkscape:cx="621.39178"
     inkscape:cy="424.8103"
     inkscape:document-units="px"
     inkscape:current-layer="layer1"
     showgrid="false"
     inkscape:window-width="1920"
     inkscape:window-height="1125"
     inkscape:window-x="-9"
     inkscape:window-y="-9"
     inkscape:window-maximized="1" />
  <metadata
     id="metadata3054">
    <rdf:RDF>
      <cc:Work
         rdf:about="">
        <dc:format>image/svg+xml</dc:format>
        <dc:type
           rdf:resource="http://purl.org/dc/dcmitype/StillImage" />
        <dc:title></dc:title>
      </cc:Work>
    </rdf:RDF>
  </metadata>
  <g
     inkscape:label="Ebene 1"
     inkscape:groupmode="layer"
     id="layer1"
     transform="translate(0,-308.2677)">
    <path
       style="fill:none;stroke:#000000;stroke-width:1px;stroke-linecap:butt;stroke-linejoin:miter;stroke-opacity:1"
       d="M -77.781746,95.576548 1167.7363,94.566396"
       id="path3061"
       inkscape:connector-curvature="0"
       transform="translate(0,308.2677)" />
    <path
       style="fill:none;stroke:#000000;stroke-width:1px;stroke-linecap:butt;stroke-linejoin:miter;stroke-opacity:1"
       d="M -83.842661,190.53089 1160.6653,188.51058"
       id="path3063"
       inkscape:connector-curvature="0"
       transform="translate(0,308.2677)" />
    <path
       style="fill:none;stroke:#000000;stroke-width:1px;stroke-linecap:butt;stroke-linejoin:miter;stroke-opacity:1"
       d="M -77.781746,286.49538 1161.6754,289.52584"
       id="path3067"
       inkscape:connector-curvature="0"
       transform="translate(0,308.2677)" />
    <path
       style="fill:none;stroke:#000000;stroke-width:1px;stroke-linecap:butt;stroke-linejoin:miter;stroke-opacity:1"
       d="M -77.781746,404.68323 1163.6957,408.72384"
       id="path3069"
       inkscape:connector-curvature="0"
       transform="translate(0,308.2677)" />
    <path
       style="fill:none;stroke:#000000;stroke-width:1px;stroke-linecap:butt;stroke-linejoin:miter;stroke-opacity:1"
       d="m 157.5838,-22.6113 2.0203,489.92398"
       id="path3073"
       inkscape:connector-curvature="0"
       transform="translate(0,308.2677)" />
    <path
       style="fill:none;stroke:#000000;stroke-width:1px;stroke-linecap:butt;stroke-linejoin:miter;stroke-opacity:1"
       d="m 363.65492,-29.682367 2.0203,491.944287"
       id="path3075"
       inkscape:connector-curvature="0"
       transform="translate(0,308.2677)" />
    <path
       style="fill:none;stroke:#000000;stroke-width:1px;stroke-linecap:butt;stroke-linejoin:miter;stroke-opacity:1"
       d="M 513.15749,-24.631605 517.1981,459.23146"
       id="path3077"
       inkscape:connector-curvature="0"
       transform="translate(0,308.2677)" />
    <path
       style="fill:none;stroke:#000000;stroke-width:1px;stroke-linecap:butt;stroke-linejoin:miter;stroke-opacity:1"
       d="m 701.04587,-28.672215 9.09137,485.883375"
       id="path3079"
       inkscape:connector-curvature="0"
       transform="translate(0,308.2677)" />
    <path
       style="fill:#0000ff;stroke:#000000;stroke-width:1px;stroke-linecap:butt;stroke-linejoin:miter;stroke-opacity:1"
       d="m 876.81241,-25.641757 5.05076,481.842767"
       id="path3081"
       inkscape:connector-curvature="0"
       transform="translate(0,308.2677)" />
    <path
       style="fill:none;stroke:#000000;stroke-width:1px;stroke-linecap:butt;stroke-linejoin:miter;stroke-opacity:1"
       d="M -3.0304576,-26.65191 0,484.09448"
       id="path3089"
       inkscape:connector-curvature="0"
       transform="translate(0,308.2677)" />
    <path
       style="fill:none;stroke:#000000;stroke-width:1px;stroke-linecap:butt;stroke-linejoin:miter;stroke-opacity:1"
       d="m 1050.5586,-28.672215 3.0305,495.984895"
       id="path3091"
       inkscape:connector-curvature="0"
       transform="translate(0,308.2677)" />
    <path
       style="fill:#0036c6;stroke:#000000;stroke-width:1px;stroke-linecap:butt;stroke-linejoin:miter;stroke-opacity:1;fill-opacity:0.32930514"
       d="M -78.791899,-2.4082486 1146.5231,-1.398096"
       id="path3093"
       inkscape:connector-curvature="0"
       transform="translate(0,308.2677)" />
    <path
       style="fill:#0036c6;fill-opacity:0.32930513"
       d="M -1.3529391,68.516524 C -1.719808,54.25901 -2.0199733,32.667 -2.0199733,20.534278 l 0,-22.0594955 79.2969753,0 79.296978,0 0,47.9822455 0,47.982246 -78.629944,0 -78.62994102,0 -0.66703408,-25.92275 z"
       id="path3863"
       inkscape:connector-curvature="0"
       transform="translate(0,308.2677)" />
    <path
       style="fill:#0036c6;fill-opacity:0.32930513"
       d="m -1.0098207,142.92044 0,-46.473174 79.0444367,0.258695 79.044434,0.258695 0.26273,46.214474 0.26273,46.21448 -79.307166,0 -79.3071647,0 0,-46.47317 z"
       id="path3865"
       inkscape:connector-curvature="0"
       transform="translate(0,308.2677)" />
    <path
       style="fill:#0036c6;fill-opacity:0.32930513"
       d="m 37.123438,285.61103 -37.1231061904,-0.27782 0,-18.00595 c 0,-9.90328 -0.3004599796,-31.03512 -0.6676889096,-46.95965 l -0.667689,-28.95369 79.4595881,0 79.459588,0 0,47.47717 0,47.47717 -41.66879,-0.23971 c -22.917839,-0.13183 -58.374194,-0.36472 -78.791902,-0.51752 z"
       id="path3867"
       inkscape:connector-curvature="0"
       transform="translate(0,308.2677)" />
    <path
       style="fill:#0036c6;fill-opacity:0.32930513"
       d="M 19.052531,403.80049 C 1.6001441,403.50642 1.2217749,403.45403 0.63104055,401.25026 0.29932343,400.01276 0.02171149,373.82614 0.01412514,343.05776 L 3.318096e-4,287.11524 78.539692,287.85848 c 43.196648,0.40877 78.608338,0.80891 78.692638,0.88919 0.0842,0.0803 0.48769,26.17002 0.89642,57.9772 l 0.74314,57.83124 -61.000492,-0.22769 c -33.550275,-0.12523 -69.018764,-0.3628 -78.818867,-0.52793 l 0,0 z"
       id="path3869"
       inkscape:connector-curvature="0"
       transform="translate(0,308.2677)" />
    <path
       style="fill:#0036c6;fill-opacity:0.32930513"
       d="m 253.96556,404.80873 -93.02217,-0.26309 -0.66819,-43.17879 c -0.36751,-23.74833 -0.66877,-49.88367 -0.66948,-58.07854 l -0.001,-14.89975 101.86162,0 101.86164,0 0.66885,36.53069 c 0.36788,20.09187 0.66886,46.45685 0.66886,58.58884 l 0,22.05817 -8.83883,-0.24722 c -4.86136,-0.13596 -50.69881,-0.3656 -101.86101,-0.51031 z"
       id="path3871"
       inkscape:connector-curvature="0"
       transform="translate(0,308.2677)" />
    <path
       style="fill:#0036c6;fill-opacity:0.32930513"
       d="m 159.60443,238.89109 0,-47.47717 54.2957,-0.001 c 29.86264,-6.4e-4 75.77407,-0.30211 102.02541,-0.66992 l 47.72971,-0.66876 0,48.14709 0,48.1471 -102.02541,0 -102.02541,0 0,-47.47717 z"
       id="path3873"
       inkscape:connector-curvature="0"
       transform="translate(0,308.2677)" />
    <path
       style="fill:#0036c6;fill-opacity:0.32930513"
       d="m 281.07528,94.713563 c 2.08344,-0.217935 5.4927,-0.217935 7.57614,0 2.08344,0.217934 0.37881,0.396244 -3.78807,0.396244 -4.16688,0 -5.87151,-0.17831 -3.78807,-0.396244 z"
       id="path3875"
       inkscape:connector-curvature="0"
       transform="translate(0,308.2677)" />
    <path
       style="fill:#0036c6;fill-opacity:0.32930513"
       d="m 158.59428,46.457028 0,-47.9822455 102.02541,0 102.02541,0 0.0138,45.7094025 c 0.008,25.140172 0.2879,46.732182 0.62291,47.982246 l 0.60904,2.272843 -102.6483,0 -102.6483,0 0,-47.982246 z"
       id="path3877"
       inkscape:connector-curvature="0"
       transform="translate(0,308.2677)" />
    <path
       style="fill:#0036c6;fill-opacity:0.32930513"
       d="m 159.59332,146.71467 c -0.006,-23.47342 -0.29288,-44.38358 -0.63725,-46.46702 l -0.62613,-3.788071 102.66266,0 102.66265,0 0,45.797741 0,45.79775 -40.15357,0.66789 c -22.08446,0.36734 -67.99589,0.66851 -102.0254,0.66927 l -61.87185,0.001 -0.0111,-42.67894 z"
       id="path3879"
       inkscape:connector-curvature="0"
       transform="translate(0,308.2677)" />
    <path
       style="fill:#001ec6;fill-opacity:0.32930513"
       d="m -1.0101196,143.17913 -2.989e-4,-46.214474 78.5179095,0.314967 c 43.184849,0.173232 78.599479,0.400517 78.699189,0.505076 0.0997,0.10456 0.33678,20.759461 0.52683,45.899771 l 0.34554,45.70967 -79.044434,-2.6e-4 -79.0444367,-2.7e-4 -2.989e-4,-46.21448 z"
       id="path3881"
       inkscape:connector-curvature="0"
       transform="translate(0,308.2677)" />
    <path
       style="fill:#001ec6;fill-opacity:0.32930513"
       d="M 76.519387,285.61074 3.318096e-4,285.34541 -0.00426196,249.74388 c -0.00252659,-19.58084 -0.29926385,-40.71543 -0.65941607,-46.96575 l -0.65482217,-11.36421 79.4513142,0 79.451316,0 0,47.47717 0,47.47717 -2.27284,-0.2461 c -1.25007,-0.13535 -36.70642,-0.36549 -78.791903,-0.51142 l 0,0 z"
       id="path3883"
       inkscape:connector-curvature="0"
       transform="translate(0,308.2677)" />
    <path
       style="fill:#f21e19;fill-opacity:0.32930513"
       d="m 878.91136,71.458304 c -0.001,-12.08395 -0.30127,-33.221392 -0.66682,-46.972093 l -0.66464,-25.00127593 86.02472,0 86.02468,0 0,24.08041293 c 0,13.244228 0.2998,34.38167 0.6662,46.972094 l 0.6663,22.89168 -86.02415,0 -86.0241,0 -0.002,-21.970818 z"
       id="path3885"
       inkscape:connector-curvature="0"
       transform="translate(0,308.2677)" />
    <path
       style="fill:#f21e19;fill-opacity:0.32930513"
       d="m 703.76788,57.437004 c -0.34627,-20.484168 -0.78031,-41.90327 -0.96454,-47.5980053 l -0.33496,-10.35406363 86.54672,0 86.54671,0 0.66573,21.37607693 c 0.36614,11.756843 0.66571,32.894285 0.66571,46.972094 l 0,25.596016 -81.68137,0 c -44.92475,0 -83.73631,0.281661 -86.2479,0.625912 l -4.56652,0.625912 -0.62958,-37.243942 0,0 z"
       id="path3887"
       inkscape:connector-curvature="0"
       transform="translate(0,308.2677)" />
    <path
       style="fill:#f21e19;fill-opacity:0.32930513"
       d="m 705.81138,165.90757 c -0.32504,-12.36174 -0.83124,-33.2719 -1.12487,-46.46702 l -0.53389,-23.991123 86.20967,0 86.20968,0 0.66572,21.376073 c 0.36614,11.75685 0.66571,32.667 0.66571,46.46702 l 0,25.09094 -85.75052,0 -85.75051,0 -0.59099,-22.47589 z"
       id="path3889"
       inkscape:connector-curvature="0"
       transform="translate(0,308.2677)" />
    <path
       style="fill:#f21e19;fill-opacity:0.32930513"
       d="m 707.81972,272.98374 c -0.32344,-7.91707 -0.86148,-29.73637 -1.19564,-48.48733 l -0.60758,-34.09264 85.78232,0 85.78231,0 0.66621,22.89168 c 0.36642,12.59042 0.66621,34.40972 0.66621,48.48732 l 0,25.59564 -85.25287,0 -85.25288,0 -0.58808,-14.39467 z"
       id="path3891"
       inkscape:connector-curvature="0"
       transform="translate(0,308.2677)" />
    <path
       style="fill:#f21e19;fill-opacity:0.32930513"
       d="m 709.85845,383.59544 c -0.34885,-12.63953 -0.92811,-39.00451 -1.28725,-58.58885 l -0.65298,-35.60787 85.33733,0 85.33733,0 0.66276,20.45558 c 0.36451,11.25058 0.66395,37.61556 0.66541,58.58885 l 0.003,38.13326 -84.71549,0 -84.7155,0 -0.63426,-22.98097 z"
       id="path3893"
       inkscape:connector-curvature="0"
       transform="translate(0,308.2677)" />
    <path
       style="fill:#f21e19;fill-opacity:0.32930513"
       d="m 924.78278,406.82937 -42.51911,-0.27464 -0.59614,-58.31006 c -0.32787,-32.07053 -0.51344,-58.34505 -0.41237,-58.38781 0.10108,-0.0428 38.48118,0.11514 85.28912,0.35091 l 85.10532,0.42867 0,47.71132 c 0,26.24122 0.2964,52.555 0.6586,58.47506 l 0.6586,10.76374 -42.8324,-0.24127 c -23.5579,-0.13271 -61.9661,-0.36487 -85.35162,-0.51592 l 0,0 z"
       id="path3895"
       inkscape:connector-curvature="0"
       transform="translate(0,308.2677)" />
    <path
       style="fill:#f21e19;fill-opacity:0.8036254"
       d="m 890.94681,287.63747 -9.68501,-0.32826 -0.68256,-48.10249 c -0.37541,-26.45637 -0.47917,-48.30589 -0.23057,-48.55449 0.2486,-0.24859 38.59094,-0.70273 85.20521,-1.0092 l 84.75322,-0.55721 0.6694,29.70086 c 0.3682,16.33547 0.6702,38.67859 0.6713,49.65137 l 0,19.95051 -75.50887,-0.21141 c -41.52989,-0.11628 -79.86716,-0.35914 -85.19392,-0.53968 z"
       id="path3897"
       inkscape:connector-curvature="0"
       transform="translate(0,308.2677)" />
    <path
       style="fill:#f21e19;fill-opacity:0.80362543"
       d="m 879.92151,167.08185 c -0.001,-11.89643 -0.30127,-32.88045 -0.66682,-46.63115 l -0.66464,-25.001273 86.02472,0 86.02473,0 0,45.961943 0,45.96194 -45.7965,0 c -25.1881,0 -63.59914,0.30114 -85.35791,0.6692 l -39.56139,0.66921 -0.002,-21.62987 z"
       id="path3899"
       inkscape:connector-curvature="0"
       transform="translate(0,308.2677)" />
    <path
       sodipodi:type="arc"
       style="fill:#f21e19;fill-opacity:0.80362543"
       id="path3903"
       sodipodi:cx="1249.0536"
       sodipodi:cy="12.74404"
       sodipodi:rx="79.296974"
       sodipodi:ry="15.152288"
       d="m 1328.3506,12.74404 a 79.296974,15.152288 0 1 1 -158.594,0 79.296974,15.152288 0 1 1 158.594,0 z"
       transform="matrix(0.88535032,0,0,1,152.29497,308.2677)" />
    <path
       sodipodi:type="arc"
       style="fill:#f21e19;fill-opacity:0.80362543"
       id="path3905"
       sodipodi:cx="1256.6298"
       sodipodi:cy="384.98526"
       sodipodi:rx="69.700523"
       sodipodi:ry="14.647212"
       d="m 1326.3303,384.98526 a 69.700523,14.647212 0 1 1 -139.4011,0 69.700523,14.647212 0 1 1 139.4011,0 z"
       transform="translate(0,308.2677)" />
    <path
       style="fill:none;stroke:#000000;stroke-width:0.2232891px;stroke-linecap:butt;stroke-linejoin:miter;stroke-opacity:1"
       d="m 1187.7853,322.02189 -0.8561,371.73614"
       id="path3907"
       inkscape:connector-curvature="0" />
    <path
       style="fill:none;stroke:#000000;stroke-width:1px;stroke-linecap:butt;stroke-linejoin:miter;stroke-opacity:1"
       d="m 1328.3506,10.723734 -2.0203,372.746286"
       id="path3909"
       inkscape:connector-curvature="0"
       transform="translate(0,308.2677)" />
    <path
       sodipodi:type="arc"
       style="fill:#0000ff;fill-opacity:0.80362543"
       id="path3911"
       sodipodi:cx="-146.47212"
       sodipodi:cy="-2.4082487"
       sodipodi:rx="61.619305"
       sodipodi:ry="15.152288"
       d="m -84.852818,-2.4082487 a 61.619305,15.152288 0 1 1 -123.238612,0 61.619305,15.152288 0 1 1 123.238612,0 z"
       transform="translate(0,308.2677)" />
    <path
       transform="translate(-1.0101497,706.2678)"
       sodipodi:type="arc"
       style="fill:#0000ff;fill-opacity:0.80362543"
       id="path3911-1"
       sodipodi:cx="-146.47212"
       sodipodi:cy="-2.4082487"
       sodipodi:rx="61.619305"
       sodipodi:ry="15.152288"
       d="m -84.852818,-2.4082487 a 61.619305,15.152288 0 1 1 -123.238612,0 61.619305,15.152288 0 1 1 123.238612,0 z" />
    <path
       style="fill:none;stroke:#000000;stroke-width:1px;stroke-linecap:butt;stroke-linejoin:miter;stroke-opacity:1"
       d="M -210.11173,-4.4285537 -209.10158,394.5817"
       id="path3931"
       inkscape:connector-curvature="0"
       transform="translate(0,308.2677)" />
    <path
       style="fill:none;stroke:#000000;stroke-width:1px;stroke-linecap:butt;stroke-linejoin:miter;stroke-opacity:1"
       d="M -83.842661,-2.4082486 -85.862966,398.62231"
       id="path3933"
       inkscape:connector-curvature="0"
       transform="translate(0,308.2677)" />
    <path
       style="fill:none;stroke:#000000;stroke-width:1px;stroke-linecap:butt;stroke-linejoin:miter;stroke-opacity:1"
       d="m -211.12188,326.90148 124.248761,2.02031 m -121.218301,-61.61931 120.208149,1.01015 m -122.228459,-74.75128 123.238611,1.01015 m -123.238611,-68.69038 124.248764,-1.01015"
       id="path3937"
       inkscape:connector-curvature="0"
       transform="translate(0,308.2677)" />
    <path
       style="fill:none;stroke:#000000;stroke-width:1px;stroke-linecap:butt;stroke-linejoin:miter;stroke-opacity:1"
       d="M -209.10158,59.211057 -83.842661,58.200904"
       id="path3939"
       inkscape:connector-curvature="0"
       transform="translate(0,308.2677)" />
    <path
       style="fill:none;stroke:#000000;stroke-width:1px;stroke-linecap:butt;stroke-linejoin:miter;stroke-opacity:1"
       d="m 1186.9292,181.43951 141.4214,1.01016 m -142.4315,63.63961 141.4213,3.03046 m -143.4416,74.75128 143.4416,0 m -141.4213,-214.15234 141.4213,4.04061"
       id="path3941"
       inkscape:connector-curvature="0"
       transform="translate(0,308.2677)" />
    <path
       style="fill:#ff00ff;stroke:#000000;stroke-width:1px;stroke-linecap:butt;stroke-linejoin:miter;stroke-opacity:1"
       d="m 1189.9597,65.271972 136.3706,-1.010153"
       id="path3943"
       inkscape:connector-curvature="0"
       transform="translate(0,308.2677)" />
    <path
       sodipodi:type="arc"
       style="fill:#ff00ff;fill-opacity:0.80362543"
       id="path3945"
       sodipodi:cx="787.41388"
       sodipodi:cy="53.655216"
       sodipodi:rx="34.850262"
       sodipodi:ry="20.708128"
       d="m 822.26414,53.655216 a 34.850262,20.708128 0 1 1 -69.70052,0 34.850262,20.708128 0 1 1 69.70052,0 z"
       transform="translate(0,308.2677)" />
    <path
       sodipodi:type="arc"
       style="fill:#ff00ff;fill-opacity:0.80362543"
       id="path3947"
       sodipodi:cx="965.70581"
       sodipodi:cy="53.150143"
       sodipodi:rx="28.284271"
       sodipodi:ry="19.192898"
       d="m 993.99008,53.150143 a 28.284271,19.192898 0 1 1 -56.56854,0 28.284271,19.192898 0 1 1 56.56854,0 z"
       transform="translate(0,308.2677)" />
    <path
       sodipodi:type="arc"
       style="fill:#ff00ff;fill-opacity:0.80362543"
       id="path3949"
       sodipodi:cx="970.25153"
       sodipodi:cy="143.55879"
       sodipodi:rx="28.789347"
       sodipodi:ry="17.67767"
       d="m 999.04087,143.55879 a 28.789347,17.67767 0 1 1 -57.57869,0 28.789347,17.67767 0 1 1 57.57869,0 z"
       transform="translate(0,308.2677)" />
    <path
       sodipodi:type="arc"
       style="fill:#ff00ff;fill-opacity:0.80362543"
       id="path3951"
       sodipodi:cx="987.42413"
       sodipodi:cy="245.5842"
       sodipodi:rx="27.779196"
       sodipodi:ry="14.647212"
       d="m 1015.2033,245.5842 a 27.779196,14.647212 0 1 1 -55.55836,0 27.779196,14.647212 0 1 1 55.55836,0 z"
       transform="translate(0,308.2677)" />
    <path
       sodipodi:type="arc"
       style="fill:#ff00ff;fill-opacity:0.80362543"
       id="path3953"
       sodipodi:cx="954.59418"
       sodipodi:cy="348.11469"
       sodipodi:rx="28.284271"
       sodipodi:ry="16.162441"
       d="m 982.87845,348.11469 a 28.284271,16.162441 0 1 1 -56.56854,0 28.284271,16.162441 0 1 1 56.56854,0 z"
       transform="translate(0,308.2677)" />
    <path
       sodipodi:type="arc"
       style="fill:#ff00ff;fill-opacity:0.80362543"
       id="path3955"
       sodipodi:cx="829.84033"
       sodipodi:cy="357.71112"
       sodipodi:rx="38.890873"
       sodipodi:ry="28.789347"
       d="m 868.7312,357.71112 a 38.890873,28.789347 0 1 1 -77.78174,0 38.890873,28.789347 0 1 1 77.78174,0 z"
       transform="translate(0,308.2677)" />
    <path
       sodipodi:type="arc"
       style="fill:#ff00ff;fill-opacity:0.80362543"
       id="path3957"
       sodipodi:cx="796.50531"
       sodipodi:cy="241.54359"
       sodipodi:rx="29.7995"
       sodipodi:ry="27.779196"
       d="m 826.30481,241.54359 a 29.7995,27.779196 0 1 1 -59.599,0 29.7995,27.779196 0 1 1 59.599,0 z"
       transform="translate(0,308.2677)" />
    <path
       sodipodi:type="arc"
       style="fill:#00ffff;fill-opacity:0.80362542999999997"
       id="path3959"
       sodipodi:cx="793.47485"
       sodipodi:cy="148.60956"
       sodipodi:rx="28.789347"
       sodipodi:ry="21.718279"
       d="m 822.2642,148.60956 a 28.789347,21.718279 0 1 1 -57.57869,0 28.789347,21.718279 0 1 1 57.57869,0 z"
       transform="translate(0,308.2677)" />
    <path
       sodipodi:type="arc"
       style="fill:#00ffff;fill-opacity:0.80362543"
       id="path3961"
       sodipodi:cx="83.337585"
       sodipodi:cy="49.109531"
       sodipodi:rx="35.860416"
       sodipodi:ry="14.142136"
       d="m 119.198,49.109531 a 35.860416,14.142136 0 1 1 -71.720831,0 35.860416,14.142136 0 1 1 71.720831,0 z"
       transform="translate(0,308.2677)" />
    <path
       sodipodi:type="arc"
       style="fill:#00ffff;fill-opacity:0.80362543"
       id="path3963"
       sodipodi:cx="271.22595"
       sodipodi:cy="58.200905"
       sodipodi:rx="34.850262"
       sodipodi:ry="26.263966"
       d="m 306.07621,58.200905 a 34.850262,26.263966 0 1 1 -69.70052,0 34.850262,26.263966 0 1 1 69.70052,0 z"
       transform="translate(0,308.2677)" />
    <path
       sodipodi:type="arc"
       style="fill:#00ffff;fill-opacity:0.80362543"
       id="path3965"
       sodipodi:cx="265.6701"
       sodipodi:cy="163.25677"
       sodipodi:rx="35.355339"
       sodipodi:ry="27.274118"
       d="m 301.02544,163.25677 a 35.355339,27.274118 0 1 1 -70.71067,0 35.355339,27.274118 0 1 1 70.71067,0 z"
       transform="translate(333.35034,389.0799)" />
    <path
       sodipodi:type="arc"
       style="fill:#00ffff;fill-opacity:0.80362543"
       id="path3967"
       sodipodi:cx="255.56859"
       sodipodi:cy="273.3634"
       sodipodi:rx="53.538086"
       sodipodi:ry="26.263966"
       d="m 309.10667,273.3634 a 53.538086,26.263966 0 1 1 -107.07617,0 53.538086,26.263966 0 1 1 107.07617,0 z"
       transform="translate(0,308.2677)" />
    <path
       sodipodi:type="arc"
       style="fill:#00ffff;fill-opacity:0.80362543"
       id="path3969"
       sodipodi:cx="245.97214"
       sodipodi:cy="372.86343"
       sodipodi:rx="53.033009"
       sodipodi:ry="36.870567"
       d="m 299.00515,372.86343 a 53.033009,36.870567 0 1 1 -106.06602,0 53.033009,36.870567 0 1 1 106.06602,0 z"
       transform="translate(0,308.2677)" />
    <path
       sodipodi:type="arc"
       style="fill:#00ffff;fill-opacity:0.80362543"
       id="path3971"
       sodipodi:cx="68.690376"
       sodipodi:cy="357.20605"
       sodipodi:rx="61.619305"
       sodipodi:ry="26.263966"
       d="m 130.30968,357.20605 a 61.619305,26.263966 0 1 1 -123.2386084,0 61.619305,26.263966 0 1 1 123.2386084,0 z"
       transform="translate(0,308.2677)" />
    <path
       sodipodi:type="arc"
       style="fill:#00ffff;fill-opacity:0.80362543"
       id="path3973"
       sodipodi:cx="81.822357"
       sodipodi:cy="254.67557"
       sodipodi:rx="30.304577"
       sodipodi:ry="11.616755"
       d="m 112.12693,254.67557 a 30.304577,11.616755 0 1 1 -60.60915,0 30.304577,11.616755 0 1 1 60.60915,0 z"
       transform="translate(0,308.2677)" />
    <path
       sodipodi:type="arc"
       style="fill:#00ffff;fill-opacity:0.80362543"
       id="path3975"
       sodipodi:cx="85.862968"
       sodipodi:cy="146.08418"
       sodipodi:rx="19.192898"
       sodipodi:ry="18.182745"
       d="m 105.05587,146.08418 a 19.192898,18.182745 0 1 1 -38.385799,0 19.192898,18.182745 0 1 1 38.385799,0 z"
       transform="translate(0,308.2677)" />
    <path
       sodipodi:type="star"
       style="fill:#280b0b;fill-opacity:0.80362543"
       id="path3979"
       sodipodi:sides="5"
       sodipodi:cx="119.198"
       sodipodi:cy="608.73404"
       sodipodi:r1="64.649763"
       sodipodi:r2="32.324881"
       sodipodi:arg1="-1.5707963"
       sodipodi:arg2="-0.9424778"
       inkscape:flatsided="false"
       inkscape:rounded="0"
       inkscape:randomized="0"
       d="m 119.198,544.0843 19.00009,38.49839 42.48549,6.17351 -30.74279,29.96681 7.25739,42.31382 -38.00018,-19.97788 -38.000182,19.97788 7.25739,-42.31382 -30.74279,-29.96682 42.485492,-6.1735 z"
       transform="translate(0,308.2677)"
       inkscape:transform-center-y="-6.173503" />
    <text
       xml:space="preserve"
       style="font-size:40px;font-style:normal;font-weight:normal;line-height:125%;letter-spacing:0px;word-spacing:0px;fill:#000000;fill-opacity:1;stroke:none;font-family:Sans"
       x="64.649765"
       y="1012.9662"
       id="text3985"
       sodipodi:linespacing="125%"><tspan
         sodipodi:role="line"
         id="tspan3987"
         x="64.649765"
         y="1012.9662">attack</tspan></text>
  </g>
</svg>
